<?xml version="1.0" encoding="UTF-8" standalone="no"?>
<!DOCTYPE svg PUBLIC "-//W3C//DTD SVG 1.1//EN"
 "http://www.w3.org/Graphics/SVG/1.1/DTD/svg11.dtd">
<!-- Generated by graphviz version 13.0.1 (20250615.1724)
 -->
<!-- Title: dependency&#45;cruiser output Pages: 1 -->
<svg width="1397pt" height="452pt"
 viewBox="0.00 0.00 1397.00 452.00" xmlns="http://www.w3.org/2000/svg" xmlns:xlink="http://www.w3.org/1999/xlink">
<g id="graph0" class="graph" transform="scale(1 1) rotate(0) translate(4 448)">
<title>dependency&#45;cruiser output</title>
<polygon fill="white" stroke="none" points="-4,4 -4,-448 1392.5,-448 1392.5,4 -4,4"/>
<g id="clust1" class="cluster">
<title>cluster_src</title>
<path fill="#ffffff" stroke="black" stroke-width="2" d="M20,-8C20,-8 1368.5,-8 1368.5,-8 1374.5,-8 1380.5,-14 1380.5,-20 1380.5,-20 1380.5,-424 1380.5,-424 1380.5,-430 1374.5,-436 1368.5,-436 1368.5,-436 20,-436 20,-436 14,-436 8,-430 8,-424 8,-424 8,-20 8,-20 8,-14 14,-8 20,-8"/>
<text xml:space="preserve" text-anchor="middle" x="694.25" y="-423.45" font-family="Helvetica,sans-Serif" font-weight="bold" font-size="9.00">src</text>
</g>
<g id="clust2" class="cluster">
<title>cluster_src/app</title>
<path fill="#ffffff" stroke="black" stroke-width="2" d="M90,-294C90,-294 238.25,-294 238.25,-294 244.25,-294 250.25,-300 250.25,-306 250.25,-306 250.25,-394 250.25,-394 250.25,-400 244.25,-406 238.25,-406 238.25,-406 90,-406 90,-406 84,-406 78,-400 78,-394 78,-394 78,-306 78,-306 78,-300 84,-294 90,-294"/>
<text xml:space="preserve" text-anchor="middle" x="164.12" y="-393.45" font-family="Helvetica,sans-Serif" font-weight="bold" font-size="9.00">app</text>
</g>
<g id="clust3" class="cluster">
<title>cluster_src/app/providers</title>
<path fill="#ffffff" stroke="black" stroke-width="2" d="M184.25,-328C184.25,-328 230.25,-328 230.25,-328 236.25,-328 242.25,-334 242.25,-340 242.25,-340 242.25,-368 242.25,-368 242.25,-374 236.25,-380 230.25,-380 230.25,-380 184.25,-380 184.25,-380 178.25,-380 172.25,-374 172.25,-368 172.25,-368 172.25,-340 172.25,-340 172.25,-334 178.25,-328 184.25,-328"/>
<text xml:space="preserve" text-anchor="middle" x="207.25" y="-367.45" font-family="Helvetica,sans-Serif" font-weight="bold" font-size="9.00">providers</text>
</g>
<g id="clust4" class="cluster">
<title>cluster_src/app/styles</title>
<path fill="#ffffff" stroke="black" stroke-width="2" d="M98,-302C98,-302 144.25,-302 144.25,-302 150.25,-302 156.25,-308 156.25,-314 156.25,-314 156.25,-342 156.25,-342 156.25,-348 150.25,-354 144.25,-354 144.25,-354 98,-354 98,-354 92,-354 86,-348 86,-342 86,-342 86,-314 86,-314 86,-308 92,-302 98,-302"/>
<text xml:space="preserve" text-anchor="middle" x="121.12" y="-341.45" font-family="Helvetica,sans-Serif" font-weight="bold" font-size="9.00">styles</text>
</g>
<g id="clust5" class="cluster">
<title>cluster_src/entities</title>
<path fill="#ffffff" stroke="black" stroke-width="2" d="M828.5,-250C828.5,-250 1190,-250 1190,-250 1196,-250 1202,-256 1202,-262 1202,-262 1202,-388 1202,-388 1202,-394 1196,-400 1190,-400 1190,-400 828.5,-400 828.5,-400 822.5,-400 816.5,-394 816.5,-388 816.5,-388 816.5,-262 816.5,-262 816.5,-256 822.5,-250 828.5,-250"/>
<text xml:space="preserve" text-anchor="middle" x="1009.25" y="-387.45" font-family="Helvetica,sans-Serif" font-weight="bold" font-size="9.00">entities</text>
</g>
<g id="clust6" class="cluster">
<title>cluster_src/entities/recipe</title>
<path fill="#ffffff" stroke="black" stroke-width="2" d="M836.5,-258C836.5,-258 1182,-258 1182,-258 1188,-258 1194,-264 1194,-270 1194,-270 1194,-362 1194,-362 1194,-368 1188,-374 1182,-374 1182,-374 836.5,-374 836.5,-374 830.5,-374 824.5,-368 824.5,-362 824.5,-362 824.5,-270 824.5,-270 824.5,-264 830.5,-258 836.5,-258"/>
<text xml:space="preserve" text-anchor="middle" x="1009.25" y="-361.45" font-family="Helvetica,sans-Serif" font-weight="bold" font-size="9.00">recipe</text>
</g>
<g id="clust7" class="cluster">
<title>cluster_src/entities/recipe/api</title>
<path fill="#ffffff" stroke="black" stroke-width="2" d="M1118,-266C1118,-266 1174,-266 1174,-266 1180,-266 1186,-272 1186,-278 1186,-278 1186,-306 1186,-306 1186,-312 1180,-318 1174,-318 1174,-318 1118,-318 1118,-318 1112,-318 1106,-312 1106,-306 1106,-306 1106,-278 1106,-278 1106,-272 1112,-266 1118,-266"/>
<text xml:space="preserve" text-anchor="middle" x="1146" y="-305.45" font-family="Helvetica,sans-Serif" font-weight="bold" font-size="9.00">api</text>
</g>
<g id="clust8" class="cluster">
<title>cluster_src/entities/recipe/model</title>
<path fill="#ffffff" stroke="black" stroke-width="2" d="M1040,-266C1040,-266 1086,-266 1086,-266 1092,-266 1098,-272 1098,-278 1098,-278 1098,-336 1098,-336 1098,-342 1092,-348 1086,-348 1086,-348 1040,-348 1040,-348 1034,-348 1028,-342 1028,-336 1028,-336 1028,-278 1028,-278 1028,-272 1034,-266 1040,-266"/>
<text xml:space="preserve" text-anchor="middle" x="1063" y="-335.45" font-family="Helvetica,sans-Serif" font-weight="bold" font-size="9.00">model</text>
</g>
<g id="clust9" class="cluster">
<title>cluster_src/entities/recipe/ui</title>
<path fill="#ffffff" stroke="black" stroke-width="2" d="M933.25,-296C933.25,-296 1008,-296 1008,-296 1014,-296 1020,-302 1020,-308 1020,-308 1020,-336 1020,-336 1020,-342 1014,-348 1008,-348 1008,-348 933.25,-348 933.25,-348 927.25,-348 921.25,-342 921.25,-336 921.25,-336 921.25,-308 921.25,-308 921.25,-302 927.25,-296 933.25,-296"/>
<text xml:space="preserve" text-anchor="middle" x="970.62" y="-335.45" font-family="Helvetica,sans-Serif" font-weight="bold" font-size="9.00">ui</text>
</g>
<g id="clust10" class="cluster">
<title>cluster_src/features</title>
<path fill="#ffffff" stroke="black" stroke-width="2" d="M604.25,-18C604.25,-18 901.25,-18 901.25,-18 907.25,-18 913.25,-24 913.25,-30 913.25,-30 913.25,-230 913.25,-230 913.25,-236 907.25,-242 901.25,-242 901.25,-242 604.25,-242 604.25,-242 598.25,-242 592.25,-236 592.25,-230 592.25,-230 592.25,-30 592.25,-30 592.25,-24 598.25,-18 604.25,-18"/>
<text xml:space="preserve" text-anchor="middle" x="752.75" y="-229.45" font-family="Helvetica,sans-Serif" font-weight="bold" font-size="9.00">features</text>
</g>
<g id="clust11" class="cluster">
<title>cluster_src/features/toggle&#45;favorite</title>
<path fill="#ffffff" stroke="black" stroke-width="2" d="M612.25,-26C612.25,-26 893.25,-26 893.25,-26 899.25,-26 905.25,-32 905.25,-38 905.25,-38 905.25,-110 905.25,-110 905.25,-116 899.25,-122 893.25,-122 893.25,-122 612.25,-122 612.25,-122 606.25,-122 600.25,-116 600.25,-110 600.25,-110 600.25,-38 600.25,-38 600.25,-32 606.25,-26 612.25,-26"/>
<text xml:space="preserve" text-anchor="middle" x="752.75" y="-109.45" font-family="Helvetica,sans-Serif" font-weight="bold" font-size="9.00">toggle&#45;favorite</text>
</g>
<g id="clust12" class="cluster">
<title>cluster_src/features/toggle&#45;favorite/model</title>
<path fill="#ffffff" stroke="black" stroke-width="2" d="M833.75,-44C833.75,-44 885.25,-44 885.25,-44 891.25,-44 897.25,-50 897.25,-56 897.25,-56 897.25,-84 897.25,-84 897.25,-90 891.25,-96 885.25,-96 885.25,-96 833.75,-96 833.75,-96 827.75,-96 821.75,-90 821.75,-84 821.75,-84 821.75,-56 821.75,-56 821.75,-50 827.75,-44 833.75,-44"/>
<text xml:space="preserve" text-anchor="middle" x="859.5" y="-83.45" font-family="Helvetica,sans-Serif" font-weight="bold" font-size="9.00">model</text>
</g>
<g id="clust13" class="cluster">
<title>cluster_src/features/toggle&#45;favorite/ui</title>
<path fill="#ffffff" stroke="black" stroke-width="2" d="M682.25,-44C682.25,-44 794.5,-44 794.5,-44 800.5,-44 806.5,-50 806.5,-56 806.5,-56 806.5,-84 806.5,-84 806.5,-90 800.5,-96 794.5,-96 794.5,-96 682.25,-96 682.25,-96 676.25,-96 670.25,-90 670.25,-84 670.25,-84 670.25,-56 670.25,-56 670.25,-50 676.25,-44 682.25,-44"/>
<text xml:space="preserve" text-anchor="middle" x="738.38" y="-83.45" font-family="Helvetica,sans-Serif" font-weight="bold" font-size="9.00">ui</text>
</g>
<g id="clust14" class="cluster">
<title>cluster_src/features/view&#45;recipe</title>
<path fill="#ffffff" stroke="black" stroke-width="2" d="M612.25,-130C612.25,-130 796.5,-130 796.5,-130 802.5,-130 808.5,-136 808.5,-142 808.5,-142 808.5,-204 808.5,-204 808.5,-210 802.5,-216 796.5,-216 796.5,-216 612.25,-216 612.25,-216 606.25,-216 600.25,-210 600.25,-204 600.25,-204 600.25,-142 600.25,-142 600.25,-136 606.25,-130 612.25,-130"/>
<text xml:space="preserve" text-anchor="middle" x="704.38" y="-203.45" font-family="Helvetica,sans-Serif" font-weight="bold" font-size="9.00">view&#45;recipe</text>
</g>
<g id="clust15" class="cluster">
<title>cluster_src/features/view&#45;recipe/ui</title>
<path fill="#ffffff" stroke="black" stroke-width="2" d="M688.25,-138C688.25,-138 788.5,-138 788.5,-138 794.5,-138 800.5,-144 800.5,-150 800.5,-150 800.5,-178 800.5,-178 800.5,-184 794.5,-190 788.5,-190 788.5,-190 688.25,-190 688.25,-190 682.25,-190 676.25,-184 676.25,-178 676.25,-178 676.25,-150 676.25,-150 676.25,-144 682.25,-138 688.25,-138"/>
<text xml:space="preserve" text-anchor="middle" x="738.38" y="-177.45" font-family="Helvetica,sans-Serif" font-weight="bold" font-size="9.00">ui</text>
</g>
<g id="clust16" class="cluster">
<title>cluster_src/pages</title>
<path fill="#ffffff" stroke="black" stroke-width="2" d="M176.25,-166C176.25,-166 367,-166 367,-166 373,-166 379,-172 379,-178 379,-178 379,-274 379,-274 379,-280 373,-286 367,-286 367,-286 176.25,-286 176.25,-286 170.25,-286 164.25,-280 164.25,-274 164.25,-274 164.25,-178 164.25,-178 164.25,-172 170.25,-166 176.25,-166"/>
<text xml:space="preserve" text-anchor="middle" x="271.62" y="-273.45" font-family="Helvetica,sans-Serif" font-weight="bold" font-size="9.00">pages</text>
</g>
<g id="clust17" class="cluster">
<title>cluster_src/pages/recipes</title>
<path fill="#ffffff" stroke="black" stroke-width="2" d="M184.25,-174C184.25,-174 359,-174 359,-174 365,-174 371,-180 371,-186 371,-186 371,-248 371,-248 371,-254 365,-260 359,-260 359,-260 184.25,-260 184.25,-260 178.25,-260 172.25,-254 172.25,-248 172.25,-248 172.25,-186 172.25,-186 172.25,-180 178.25,-174 184.25,-174"/>
<text xml:space="preserve" text-anchor="middle" x="271.62" y="-247.45" font-family="Helvetica,sans-Serif" font-weight="bold" font-size="9.00">recipes</text>
</g>
<g id="clust18" class="cluster">
<title>cluster_src/pages/recipes/ui</title>
<path fill="#ffffff" stroke="black" stroke-width="2" d="M270.25,-182C270.25,-182 351,-182 351,-182 357,-182 363,-188 363,-194 363,-194 363,-222 363,-222 363,-228 357,-234 351,-234 351,-234 270.25,-234 270.25,-234 264.25,-234 258.25,-228 258.25,-222 258.25,-222 258.25,-194 258.25,-194 258.25,-188 264.25,-182 270.25,-182"/>
<text xml:space="preserve" text-anchor="middle" x="310.62" y="-221.45" font-family="Helvetica,sans-Serif" font-weight="bold" font-size="9.00">ui</text>
</g>
<g id="clust19" class="cluster">
<title>cluster_src/shared</title>
<path fill="#ffffff" stroke="black" stroke-width="2" d="M1222,-62C1222,-62 1360.5,-62 1360.5,-62 1366.5,-62 1372.5,-68 1372.5,-74 1372.5,-74 1372.5,-286 1372.5,-286 1372.5,-292 1366.5,-298 1360.5,-298 1360.5,-298 1222,-298 1222,-298 1216,-298 1210,-292 1210,-286 1210,-286 1210,-74 1210,-74 1210,-68 1216,-62 1222,-62"/>
<text xml:space="preserve" text-anchor="middle" x="1291.25" y="-285.45" font-family="Helvetica,sans-Serif" font-weight="bold" font-size="9.00">shared</text>
</g>
<g id="clust20" class="cluster">
<title>cluster_src/shared/api</title>
<path fill="#ffffff" stroke="black" stroke-width="2" d="M1230.88,-220C1230.88,-220 1276.88,-220 1276.88,-220 1282.88,-220 1288.88,-226 1288.88,-232 1288.88,-232 1288.88,-260 1288.88,-260 1288.88,-266 1282.88,-272 1276.88,-272 1276.88,-272 1230.88,-272 1230.88,-272 1224.88,-272 1218.88,-266 1218.88,-260 1218.88,-260 1218.88,-232 1218.88,-232 1218.88,-226 1224.88,-220 1230.88,-220"/>
<text xml:space="preserve" text-anchor="middle" x="1253.88" y="-259.45" font-family="Helvetica,sans-Serif" font-weight="bold" font-size="9.00">api</text>
</g>
<g id="clust21" class="cluster">
<title>cluster_src/shared/lib</title>
<path fill="#ffffff" stroke="black" stroke-width="2" d="M1230,-130C1230,-130 1277.75,-130 1277.75,-130 1283.75,-130 1289.75,-136 1289.75,-142 1289.75,-142 1289.75,-200 1289.75,-200 1289.75,-206 1283.75,-212 1277.75,-212 1277.75,-212 1230,-212 1230,-212 1224,-212 1218,-206 1218,-200 1218,-200 1218,-142 1218,-142 1218,-136 1224,-130 1230,-130"/>
<text xml:space="preserve" text-anchor="middle" x="1253.88" y="-199.45" font-family="Helvetica,sans-Serif" font-weight="bold" font-size="9.00">lib</text>
</g>
<g id="clust22" class="cluster">
<title>cluster_src/shared/ui</title>
<path fill="#ffffff" stroke="black" stroke-width="2" d="M1230.88,-70C1230.88,-70 1352.5,-70 1352.5,-70 1358.5,-70 1364.5,-76 1364.5,-82 1364.5,-82 1364.5,-110 1364.5,-110 1364.5,-116 1358.5,-122 1352.5,-122 1352.5,-122 1230.88,-122 1230.88,-122 1224.88,-122 1218.88,-116 1218.88,-110 1218.88,-110 1218.88,-82 1218.88,-82 1218.88,-76 1224.88,-70 1230.88,-70"/>
<text xml:space="preserve" text-anchor="middle" x="1291.69" y="-109.45" font-family="Helvetica,sans-Serif" font-weight="bold" font-size="9.00">ui</text>
</g>
<g id="clust23" class="cluster">
<title>cluster_src/widgets</title>
<path fill="#ffffff" stroke="black" stroke-width="2" d="M399,-154C399,-154 572.25,-154 572.25,-154 578.25,-154 584.25,-160 584.25,-166 584.25,-166 584.25,-356 584.25,-356 584.25,-362 578.25,-368 572.25,-368 572.25,-368 399,-368 399,-368 393,-368 387,-362 387,-356 387,-356 387,-166 387,-166 387,-160 393,-154 399,-154"/>
<text xml:space="preserve" text-anchor="middle" x="485.62" y="-355.45" font-family="Helvetica,sans-Serif" font-weight="bold" font-size="9.00">widgets</text>
</g>
<g id="clust24" class="cluster">
<title>cluster_src/widgets/recipe&#45;filters</title>
<path fill="#ffffff" stroke="black" stroke-width="2" d="M407,-256C407,-256 564.25,-256 564.25,-256 570.25,-256 576.25,-262 576.25,-268 576.25,-268 576.25,-330 576.25,-330 576.25,-336 570.25,-342 564.25,-342 564.25,-342 407,-342 407,-342 401,-342 395,-336 395,-330 395,-330 395,-268 395,-268 395,-262 401,-256 407,-256"/>
<text xml:space="preserve" text-anchor="middle" x="485.62" y="-329.45" font-family="Helvetica,sans-Serif" font-weight="bold" font-size="9.00">recipe&#45;filters</text>
</g>
<g id="clust25" class="cluster">
<title>cluster_src/widgets/recipe&#45;filters/ui</title>
<path fill="#ffffff" stroke="black" stroke-width="2" d="M477,-264C477,-264 556.25,-264 556.25,-264 562.25,-264 568.25,-270 568.25,-276 568.25,-276 568.25,-304 568.25,-304 568.25,-310 562.25,-316 556.25,-316 556.25,-316 477,-316 477,-316 471,-316 465,-310 465,-304 465,-304 465,-276 465,-276 465,-270 471,-264 477,-264"/>
<text xml:space="preserve" text-anchor="middle" x="516.62" y="-303.45" font-family="Helvetica,sans-Serif" font-weight="bold" font-size="9.00">ui</text>
</g>
<g id="clust26" class="cluster">
<title>cluster_src/widgets/recipe&#45;grid</title>
<path fill="#ffffff" stroke="black" stroke-width="2" d="M407,-162C407,-162 560.5,-162 560.5,-162 566.5,-162 572.5,-168 572.5,-174 572.5,-174 572.5,-236 572.5,-236 572.5,-242 566.5,-248 560.5,-248 560.5,-248 407,-248 407,-248 401,-248 395,-242 395,-236 395,-236 395,-174 395,-174 395,-168 401,-162 407,-162"/>
<text xml:space="preserve" text-anchor="middle" x="483.75" y="-235.45" font-family="Helvetica,sans-Serif" font-weight="bold" font-size="9.00">recipe&#45;grid</text>
</g>
<g id="clust27" class="cluster">
<title>cluster_src/widgets/recipe&#45;grid/ui</title>
<path fill="#ffffff" stroke="black" stroke-width="2" d="M480.75,-170C480.75,-170 552.5,-170 552.5,-170 558.5,-170 564.5,-176 564.5,-182 564.5,-182 564.5,-210 564.5,-210 564.5,-216 558.5,-222 552.5,-222 552.5,-222 480.75,-222 480.75,-222 474.75,-222 468.75,-216 468.75,-210 468.75,-210 468.75,-182 468.75,-182 468.75,-176 474.75,-170 480.75,-170"/>
<text xml:space="preserve" text-anchor="middle" x="516.62" y="-209.45" font-family="Helvetica,sans-Serif" font-weight="bold" font-size="9.00">ui</text>
</g>
<!-- src/App.vue -->
<g id="node1" class="node">
<title>src/App.vue</title>
<g id="a_node1"><a xlink:href="src/App.vue" xlink:title="App.vue">
<path fill="#41f083" stroke="black" d="M142.21,-250.88C142.21,-250.88 100.04,-250.88 100.04,-250.88 97.08,-250.88 94.12,-247.92 94.12,-244.96 94.12,-244.96 94.12,-239.04 94.12,-239.04 94.12,-236.08 97.08,-233.12 100.04,-233.12 100.04,-233.12 142.21,-233.12 142.21,-233.12 145.17,-233.12 148.12,-236.08 148.12,-239.04 148.12,-239.04 148.12,-244.96 148.12,-244.96 148.12,-247.92 145.17,-250.88 142.21,-250.88"/>
<text xml:space="preserve" text-anchor="start" x="104.25" y="-238.32" font-family="Helvetica,sans-Serif" font-size="9.00">App.vue</text>
</a>
</g>
</g>
<!-- src/pages/recipes/index.ts -->
<g id="node2" class="node">
<title>src/pages/recipes/index.ts</title>
<g id="a_node2"><a xlink:href="src/pages/recipes/index.ts" xlink:title="index.ts">
<path fill="#ddfeff" stroke="black" d="M228.33,-220.88C228.33,-220.88 186.17,-220.88 186.17,-220.88 183.21,-220.88 180.25,-217.92 180.25,-214.96 180.25,-214.96 180.25,-209.04 180.25,-209.04 180.25,-206.08 183.21,-203.12 186.17,-203.12 186.17,-203.12 228.33,-203.12 228.33,-203.12 231.29,-203.12 234.25,-206.08 234.25,-209.04 234.25,-209.04 234.25,-214.96 234.25,-214.96 234.25,-217.92 231.29,-220.88 228.33,-220.88"/>
<text xml:space="preserve" text-anchor="start" x="191.5" y="-208.32" font-family="Helvetica,sans-Serif" font-size="9.00">index.ts</text>
</a>
</g>
</g>
<!-- src/App.vue&#45;&gt;src/pages/recipes/index.ts -->
<g id="edge1" class="edge">
<title>src/App.vue&#45;&gt;src/pages/recipes/index.ts</title>
<path fill="none" stroke="#000000" stroke-width="2" stroke-opacity="0.200000" d="M148.28,-232.67C155.72,-230.02 163.94,-227.09 171.79,-224.29"/>
<polygon fill="#000000" fill-opacity="0.200000" stroke="#000000" stroke-width="2" stroke-opacity="0.200000" points="172.31,-226.33 177.26,-222.34 170.9,-222.38 172.31,-226.33"/>
</g>
<!-- src/pages/recipes/ui/RecipesPage.vue -->
<g id="node21" class="node">
<title>src/pages/recipes/ui/RecipesPage.vue</title>
<g id="a_node21"><a xlink:href="src/pages/recipes/ui/RecipesPage.vue" xlink:title="RecipesPage.vue">
<path fill="#41f083" stroke="black" d="M349.08,-207.88C349.08,-207.88 272.17,-207.88 272.17,-207.88 269.21,-207.88 266.25,-204.92 266.25,-201.96 266.25,-201.96 266.25,-196.04 266.25,-196.04 266.25,-193.08 269.21,-190.12 272.17,-190.12 272.17,-190.12 349.08,-190.12 349.08,-190.12 352.04,-190.12 355,-193.08 355,-196.04 355,-196.04 355,-201.96 355,-201.96 355,-204.92 352.04,-207.88 349.08,-207.88"/>
<text xml:space="preserve" text-anchor="start" x="274.25" y="-195.32" font-family="Helvetica,sans-Serif" font-size="9.00">RecipesPage.vue</text>
</a>
</g>
</g>
<!-- src/pages/recipes/index.ts&#45;&gt;src/pages/recipes/ui/RecipesPage.vue -->
<g id="edge20" class="edge">
<title>src/pages/recipes/index.ts&#45;&gt;src/pages/recipes/ui/RecipesPage.vue</title>
<path fill="none" stroke="#000000" stroke-width="2" stroke-opacity="0.200000" d="M234.62,-208.62C242.14,-207.65 250.59,-206.57 259.04,-205.49"/>
<polygon fill="#000000" fill-opacity="0.200000" stroke="#000000" stroke-width="2" stroke-opacity="0.200000" points="265.39,-206.79 259.17,-205.47 264.85,-202.62 265.39,-206.79"/>
</g>
<!-- src/app.vue -->
<g id="node3" class="node">
<title>src/app.vue</title>
<g id="a_node3"><a xlink:href="src/app.vue" xlink:title="app.vue">
<path fill="#41f083" stroke="black" d="M142.21,-220.88C142.21,-220.88 100.04,-220.88 100.04,-220.88 97.08,-220.88 94.12,-217.92 94.12,-214.96 94.12,-214.96 94.12,-209.04 94.12,-209.04 94.12,-206.08 97.08,-203.12 100.04,-203.12 100.04,-203.12 142.21,-203.12 142.21,-203.12 145.17,-203.12 148.12,-206.08 148.12,-209.04 148.12,-209.04 148.12,-214.96 148.12,-214.96 148.12,-217.92 145.17,-220.88 142.21,-220.88"/>
<text xml:space="preserve" text-anchor="start" x="104.62" y="-208.32" font-family="Helvetica,sans-Serif" font-size="9.00">app.vue</text>
</a>
</g>
</g>
<!-- src/app.vue&#45;&gt;src/pages/recipes/index.ts -->
<g id="edge2" class="edge">
<title>src/app.vue&#45;&gt;src/pages/recipes/index.ts</title>
<path fill="none" stroke="#000000" stroke-width="2" stroke-opacity="0.200000" d="M148.28,-212C155.49,-212 163.43,-212 171.07,-212"/>
<polygon fill="#000000" fill-opacity="0.200000" stroke="#000000" stroke-width="2" stroke-opacity="0.200000" points="170.79,-214.1 176.79,-212 170.79,-209.9 170.79,-214.1"/>
</g>
<!-- src/app/index.ts -->
<g id="node4" class="node">
<title>src/app/index.ts</title>
<g id="a_node4"><a xlink:href="src/app/index.ts" xlink:title="index.ts">
<path fill="#ddfeff" stroke="black" d="M142.21,-379.88C142.21,-379.88 100.04,-379.88 100.04,-379.88 97.08,-379.88 94.12,-376.92 94.12,-373.96 94.12,-373.96 94.12,-368.04 94.12,-368.04 94.12,-365.08 97.08,-362.12 100.04,-362.12 100.04,-362.12 142.21,-362.12 142.21,-362.12 145.17,-362.12 148.12,-365.08 148.12,-368.04 148.12,-368.04 148.12,-373.96 148.12,-373.96 148.12,-376.92 145.17,-379.88 142.21,-379.88"/>
<text xml:space="preserve" text-anchor="start" x="105.38" y="-367.32" font-family="Helvetica,sans-Serif" font-size="9.00">index.ts</text>
</a>
</g>
</g>
<!-- src/app/providers/index.ts -->
<g id="node5" class="node">
<title>src/app/providers/index.ts</title>
<g id="a_node5"><a xlink:href="src/app/providers/index.ts" xlink:title="index.ts">
<path fill="#ddfeff" stroke="black" d="M228.33,-353.88C228.33,-353.88 186.17,-353.88 186.17,-353.88 183.21,-353.88 180.25,-350.92 180.25,-347.96 180.25,-347.96 180.25,-342.04 180.25,-342.04 180.25,-339.08 183.21,-336.12 186.17,-336.12 186.17,-336.12 228.33,-336.12 228.33,-336.12 231.29,-336.12 234.25,-339.08 234.25,-342.04 234.25,-342.04 234.25,-347.96 234.25,-347.96 234.25,-350.92 231.29,-353.88 228.33,-353.88"/>
<text xml:space="preserve" text-anchor="start" x="191.5" y="-341.32" font-family="Helvetica,sans-Serif" font-size="9.00">index.ts</text>
</a>
</g>
</g>
<!-- src/app/index.ts&#45;&gt;src/app/providers/index.ts -->
<g id="edge3" class="edge">
<title>src/app/index.ts&#45;&gt;src/app/providers/index.ts</title>
<path fill="none" stroke="#000000" stroke-width="2" stroke-opacity="0.200000" d="M148.28,-362.92C156.12,-360.49 164.82,-357.8 173.05,-355.26"/>
<polygon fill="#000000" fill-opacity="0.200000" stroke="#000000" stroke-width="2" stroke-opacity="0.200000" points="179.48,-355.47 173.13,-355.24 178.24,-351.46 179.48,-355.47"/>
</g>
<!-- src/app/styles/index.css -->
<g id="node6" class="node">
<title>src/app/styles/index.css</title>
<g id="a_node6"><a xlink:href="src/app/styles/index.css" xlink:title="index.css">
<path fill="#ffffcc" stroke="black" d="M142.33,-327.88C142.33,-327.88 99.92,-327.88 99.92,-327.88 96.96,-327.88 94,-324.92 94,-321.96 94,-321.96 94,-316.04 94,-316.04 94,-313.08 96.96,-310.12 99.92,-310.12 99.92,-310.12 142.33,-310.12 142.33,-310.12 145.29,-310.12 148.25,-313.08 148.25,-316.04 148.25,-316.04 148.25,-321.96 148.25,-321.96 148.25,-324.92 145.29,-327.88 142.33,-327.88"/>
<text xml:space="preserve" text-anchor="start" x="102" y="-315.32" font-family="Helvetica,sans-Serif" font-size="9.00">index.css</text>
</a>
</g>
</g>
<!-- src/entities/recipe/api/recipeApi.ts -->
<g id="node7" class="node">
<title>src/entities/recipe/api/recipeApi.ts</title>
<g id="a_node7"><a xlink:href="src/entities/recipe/api/recipeApi.ts" xlink:title="recipeApi.ts">
<path fill="#ddfeff" stroke="black" d="M1172.08,-291.88C1172.08,-291.88 1119.92,-291.88 1119.92,-291.88 1116.96,-291.88 1114,-288.92 1114,-285.96 1114,-285.96 1114,-280.04 1114,-280.04 1114,-277.08 1116.96,-274.12 1119.92,-274.12 1119.92,-274.12 1172.08,-274.12 1172.08,-274.12 1175.04,-274.12 1178,-277.08 1178,-280.04 1178,-280.04 1178,-285.96 1178,-285.96 1178,-288.92 1175.04,-291.88 1172.08,-291.88"/>
<text xml:space="preserve" text-anchor="start" x="1122" y="-279.32" font-family="Helvetica,sans-Serif" font-size="9.00">recipeApi.ts</text>
</a>
</g>
</g>
<!-- src/shared/api/base.ts -->
<g id="node8" class="node">
<title>src/shared/api/base.ts</title>
<g id="a_node8"><a xlink:href="src/shared/api/base.ts" xlink:title="base.ts">
<path fill="#ddfeff" stroke="black" d="M1274.96,-245.88C1274.96,-245.88 1232.79,-245.88 1232.79,-245.88 1229.83,-245.88 1226.88,-242.92 1226.88,-239.96 1226.88,-239.96 1226.88,-234.04 1226.88,-234.04 1226.88,-231.08 1229.83,-228.12 1232.79,-228.12 1232.79,-228.12 1274.96,-228.12 1274.96,-228.12 1277.92,-228.12 1280.88,-231.08 1280.88,-234.04 1280.88,-234.04 1280.88,-239.96 1280.88,-239.96 1280.88,-242.92 1277.92,-245.88 1274.96,-245.88"/>
<text xml:space="preserve" text-anchor="start" x="1239.25" y="-233.32" font-family="Helvetica,sans-Serif" font-size="9.00">base.ts</text>
</a>
</g>
</g>
<!-- src/entities/recipe/api/recipeApi.ts&#45;&gt;src/shared/api/base.ts -->
<g id="edge4" class="edge">
<title>src/entities/recipe/api/recipeApi.ts&#45;&gt;src/shared/api/base.ts</title>
<path fill="none" stroke="#000000" stroke-width="2" stroke-opacity="0.200000" d="M1168.43,-273.69C1184.21,-266.83 1205.87,-257.42 1223.31,-249.85"/>
<polygon fill="#000000" fill-opacity="0.200000" stroke="#000000" stroke-width="2" stroke-opacity="0.200000" points="1224.04,-251.82 1228.71,-247.5 1222.37,-247.97 1224.04,-251.82"/>
</g>
<!-- src/entities/recipe/index.ts -->
<g id="node9" class="node">
<title>src/entities/recipe/index.ts</title>
<g id="a_node9"><a xlink:href="src/entities/recipe/index.ts" xlink:title="index.ts">
<path fill="#ddfeff" stroke="black" d="M880.58,-289.88C880.58,-289.88 838.42,-289.88 838.42,-289.88 835.46,-289.88 832.5,-286.92 832.5,-283.96 832.5,-283.96 832.5,-278.04 832.5,-278.04 832.5,-275.08 835.46,-272.12 838.42,-272.12 838.42,-272.12 880.58,-272.12 880.58,-272.12 883.54,-272.12 886.5,-275.08 886.5,-278.04 886.5,-278.04 886.5,-283.96 886.5,-283.96 886.5,-286.92 883.54,-289.88 880.58,-289.88"/>
<text xml:space="preserve" text-anchor="start" x="843.75" y="-277.32" font-family="Helvetica,sans-Serif" font-size="9.00">index.ts</text>
</a>
</g>
</g>
<!-- src/entities/recipe/model/store.ts -->
<g id="node10" class="node">
<title>src/entities/recipe/model/store.ts</title>
<g id="a_node10"><a xlink:href="src/entities/recipe/model/store.ts" xlink:title="store.ts">
<path fill="#ddfeff" stroke="black" d="M1084.08,-291.88C1084.08,-291.88 1041.92,-291.88 1041.92,-291.88 1038.96,-291.88 1036,-288.92 1036,-285.96 1036,-285.96 1036,-280.04 1036,-280.04 1036,-277.08 1038.96,-274.12 1041.92,-274.12 1041.92,-274.12 1084.08,-274.12 1084.08,-274.12 1087.04,-274.12 1090,-277.08 1090,-280.04 1090,-280.04 1090,-285.96 1090,-285.96 1090,-288.92 1087.04,-291.88 1084.08,-291.88"/>
<text xml:space="preserve" text-anchor="start" x="1048.38" y="-279.32" font-family="Helvetica,sans-Serif" font-size="9.00">store.ts</text>
</a>
</g>
</g>
<!-- src/entities/recipe/index.ts&#45;&gt;src/entities/recipe/model/store.ts -->
<g id="edge5" class="edge">
<title>src/entities/recipe/index.ts&#45;&gt;src/entities/recipe/model/store.ts</title>
<path fill="none" stroke="#000000" stroke-width="2" stroke-opacity="0.200000" d="M886.84,-281.26C923.2,-281.62 988.76,-282.27 1028.54,-282.67"/>
<polygon fill="#000000" fill-opacity="0.200000" stroke="#000000" stroke-width="2" stroke-opacity="0.200000" points="1034.63,-284.83 1028.65,-282.67 1034.67,-280.63 1034.63,-284.83"/>
</g>
<!-- src/entities/recipe/model/types.ts -->
<g id="node11" class="node">
<title>src/entities/recipe/model/types.ts</title>
<g id="a_node11"><a xlink:href="src/entities/recipe/model/types.ts" xlink:title="types.ts">
<path fill="#ddfeff" stroke="black" d="M1084.08,-321.88C1084.08,-321.88 1041.92,-321.88 1041.92,-321.88 1038.96,-321.88 1036,-318.92 1036,-315.96 1036,-315.96 1036,-310.04 1036,-310.04 1036,-307.08 1038.96,-304.12 1041.92,-304.12 1041.92,-304.12 1084.08,-304.12 1084.08,-304.12 1087.04,-304.12 1090,-307.08 1090,-310.04 1090,-310.04 1090,-315.96 1090,-315.96 1090,-318.92 1087.04,-321.88 1084.08,-321.88"/>
<text xml:space="preserve" text-anchor="start" x="1047.62" y="-309.32" font-family="Helvetica,sans-Serif" font-size="9.00">types.ts</text>
</a>
</g>
</g>
<!-- src/entities/recipe/index.ts&#45;&gt;src/entities/recipe/model/types.ts -->
<g id="edge6" class="edge">
<title>src/entities/recipe/index.ts&#45;&gt;src/entities/recipe/model/types.ts</title>
<path fill="none" stroke="#000000" stroke-width="2" stroke-opacity="0.200000" d="M886.76,-281.45C925.5,-282.38 995.99,-285.13 1020,-293 1023.98,-294.31 1024.29,-296.04 1028,-298 1029.76,-298.93 1031.6,-299.86 1033.46,-300.77"/>
<polygon fill="#000000" fill-opacity="0.200000" stroke="#000000" stroke-width="2" stroke-opacity="0.200000" points="1038.03,-305.24 1033.5,-300.79 1039.82,-301.44 1038.03,-305.24"/>
</g>
<!-- src/entities/recipe/ui/RecipeCard.vue -->
<g id="node12" class="node">
<title>src/entities/recipe/ui/RecipeCard.vue</title>
<g id="a_node12"><a xlink:href="src/entities/recipe/ui/RecipeCard.vue" xlink:title="RecipeCard.vue">
<path fill="#41f083" stroke="black" d="M1006.08,-321.88C1006.08,-321.88 935.17,-321.88 935.17,-321.88 932.21,-321.88 929.25,-318.92 929.25,-315.96 929.25,-315.96 929.25,-310.04 929.25,-310.04 929.25,-307.08 932.21,-304.12 935.17,-304.12 935.17,-304.12 1006.08,-304.12 1006.08,-304.12 1009.04,-304.12 1012,-307.08 1012,-310.04 1012,-310.04 1012,-315.96 1012,-315.96 1012,-318.92 1009.04,-321.88 1006.08,-321.88"/>
<text xml:space="preserve" text-anchor="start" x="937.25" y="-309.32" font-family="Helvetica,sans-Serif" font-size="9.00">RecipeCard.vue</text>
</a>
</g>
</g>
<!-- src/entities/recipe/index.ts&#45;&gt;src/entities/recipe/ui/RecipeCard.vue -->
<g id="edge7" class="edge">
<title>src/entities/recipe/index.ts&#45;&gt;src/entities/recipe/ui/RecipeCard.vue</title>
<path fill="none" stroke="#000000" stroke-width="2" stroke-opacity="0.200000" d="M886.74,-289.46C897.42,-292.84 909.9,-296.7 921.25,-300 923.34,-300.61 925.48,-301.22 927.64,-301.83"/>
<polygon fill="#000000" fill-opacity="0.200000" stroke="#000000" stroke-width="2" stroke-opacity="0.200000" points="932.65,-305.41 927.43,-301.77 933.78,-301.36 932.65,-305.41"/>
</g>
<!-- src/entities/recipe/model/store.ts&#45;&gt;src/entities/recipe/api/recipeApi.ts -->
<g id="edge8" class="edge">
<title>src/entities/recipe/model/store.ts&#45;&gt;src/entities/recipe/api/recipeApi.ts</title>
<path fill="none" stroke="#000000" stroke-width="2" stroke-opacity="0.200000" d="M1090.07,-283C1094.76,-283 1099.74,-283 1104.71,-283"/>
<polygon fill="#000000" fill-opacity="0.200000" stroke="#000000" stroke-width="2" stroke-opacity="0.200000" points="1104.57,-285.1 1110.57,-283 1104.57,-280.9 1104.57,-285.1"/>
</g>
<!-- src/entities/recipe/ui/RecipeCard.vue&#45;&gt;src/entities/recipe/model/types.ts -->
<g id="edge9" class="edge">
<title>src/entities/recipe/ui/RecipeCard.vue&#45;&gt;src/entities/recipe/model/types.ts</title>
<path fill="none" stroke="#000000" stroke-width="2" stroke-opacity="0.200000" d="M1012.32,-313C1017.11,-313 1021.98,-313 1026.69,-313"/>
<polygon fill="#000000" fill-opacity="0.200000" stroke="#000000" stroke-width="2" stroke-opacity="0.200000" points="1026.49,-315.1 1032.49,-313 1026.49,-310.9 1026.49,-315.1"/>
</g>
<!-- src/features/toggle&#45;favorite/index.ts -->
<g id="node13" class="node">
<title>src/features/toggle&#45;favorite/index.ts</title>
<g id="a_node13"><a xlink:href="src/features/toggle-favorite/index.ts" xlink:title="index.ts">
<path fill="#ddfeff" stroke="black" d="M656.33,-82.88C656.33,-82.88 614.17,-82.88 614.17,-82.88 611.21,-82.88 608.25,-79.92 608.25,-76.96 608.25,-76.96 608.25,-71.04 608.25,-71.04 608.25,-68.08 611.21,-65.12 614.17,-65.12 614.17,-65.12 656.33,-65.12 656.33,-65.12 659.29,-65.12 662.25,-68.08 662.25,-71.04 662.25,-71.04 662.25,-76.96 662.25,-76.96 662.25,-79.92 659.29,-82.88 656.33,-82.88"/>
<text xml:space="preserve" text-anchor="start" x="619.5" y="-70.33" font-family="Helvetica,sans-Serif" font-size="9.00">index.ts</text>
</a>
</g>
</g>
<!-- src/features/toggle&#45;favorite/model/favorites.ts -->
<g id="node14" class="node">
<title>src/features/toggle&#45;favorite/model/favorites.ts</title>
<g id="a_node14"><a xlink:href="src/features/toggle-favorite/model/favorites.ts" xlink:title="favorites.ts">
<path fill="#ddfeff" stroke="black" d="M883.33,-69.88C883.33,-69.88 835.67,-69.88 835.67,-69.88 832.71,-69.88 829.75,-66.92 829.75,-63.96 829.75,-63.96 829.75,-58.04 829.75,-58.04 829.75,-55.08 832.71,-52.12 835.67,-52.12 835.67,-52.12 883.33,-52.12 883.33,-52.12 886.29,-52.12 889.25,-55.08 889.25,-58.04 889.25,-58.04 889.25,-63.96 889.25,-63.96 889.25,-66.92 886.29,-69.88 883.33,-69.88"/>
<text xml:space="preserve" text-anchor="start" x="837.75" y="-57.33" font-family="Helvetica,sans-Serif" font-size="9.00">favorites.ts</text>
</a>
</g>
</g>
<!-- src/features/toggle&#45;favorite/index.ts&#45;&gt;src/features/toggle&#45;favorite/model/favorites.ts -->
<g id="edge10" class="edge">
<title>src/features/toggle&#45;favorite/index.ts&#45;&gt;src/features/toggle&#45;favorite/model/favorites.ts</title>
<path fill="none" stroke="#000000" stroke-width="2" stroke-opacity="0.200000" d="M642.55,-64.73C648.59,-56.74 658.51,-45.76 670.25,-41 727.19,-17.91 748.16,-29.38 808.5,-41 816.96,-42.63 825.82,-45.68 833.68,-48.91"/>
<polygon fill="#000000" fill-opacity="0.200000" stroke="#000000" stroke-width="2" stroke-opacity="0.200000" points="838.27,-53.18 833.59,-48.88 839.93,-49.32 838.27,-53.18"/>
</g>
<!-- src/features/toggle&#45;favorite/ui/ToggleFavoriteButton.vue -->
<g id="node15" class="node">
<title>src/features/toggle&#45;favorite/ui/ToggleFavoriteButton.vue</title>
<g id="a_node15"><a xlink:href="src/features/toggle-favorite/ui/ToggleFavoriteButton.vue" xlink:title="ToggleFavoriteButton.vue">
<path fill="#41f083" stroke="black" d="M792.58,-69.88C792.58,-69.88 684.17,-69.88 684.17,-69.88 681.21,-69.88 678.25,-66.92 678.25,-63.96 678.25,-63.96 678.25,-58.04 678.25,-58.04 678.25,-55.08 681.21,-52.12 684.17,-52.12 684.17,-52.12 792.58,-52.12 792.58,-52.12 795.54,-52.12 798.5,-55.08 798.5,-58.04 798.5,-58.04 798.5,-63.96 798.5,-63.96 798.5,-66.92 795.54,-69.88 792.58,-69.88"/>
<text xml:space="preserve" text-anchor="start" x="686.25" y="-57.33" font-family="Helvetica,sans-Serif" font-size="9.00">ToggleFavoriteButton.vue</text>
</a>
</g>
</g>
<!-- src/features/toggle&#45;favorite/index.ts&#45;&gt;src/features/toggle&#45;favorite/ui/ToggleFavoriteButton.vue -->
<g id="edge11" class="edge">
<title>src/features/toggle&#45;favorite/index.ts&#45;&gt;src/features/toggle&#45;favorite/ui/ToggleFavoriteButton.vue</title>
<path fill="none" stroke="#000000" stroke-width="2" stroke-opacity="0.200000" d="M662.56,-70.62C665.25,-70.27 668.07,-69.91 670.97,-69.54"/>
<polygon fill="#000000" fill-opacity="0.200000" stroke="#000000" stroke-width="2" stroke-opacity="0.200000" points="677.13,-70.86 670.91,-69.54 676.59,-66.7 677.13,-70.86"/>
</g>
<!-- src/shared/lib/storage.ts -->
<g id="node16" class="node">
<title>src/shared/lib/storage.ts</title>
<g id="a_node16"><a xlink:href="src/shared/lib/storage.ts" xlink:title="storage.ts">
<path fill="#ddfeff" stroke="black" d="M1275.83,-155.88C1275.83,-155.88 1231.92,-155.88 1231.92,-155.88 1228.96,-155.88 1226,-152.92 1226,-149.96 1226,-149.96 1226,-144.04 1226,-144.04 1226,-141.08 1228.96,-138.12 1231.92,-138.12 1231.92,-138.12 1275.83,-138.12 1275.83,-138.12 1278.79,-138.12 1281.75,-141.08 1281.75,-144.04 1281.75,-144.04 1281.75,-149.96 1281.75,-149.96 1281.75,-152.92 1278.79,-155.88 1275.83,-155.88"/>
<text xml:space="preserve" text-anchor="start" x="1234" y="-143.32" font-family="Helvetica,sans-Serif" font-size="9.00">storage.ts</text>
</a>
</g>
</g>
<!-- src/features/toggle&#45;favorite/model/favorites.ts&#45;&gt;src/shared/lib/storage.ts -->
<g id="edge12" class="edge">
<title>src/features/toggle&#45;favorite/model/favorites.ts&#45;&gt;src/shared/lib/storage.ts</title>
<path fill="none" stroke="#000000" stroke-width="2" stroke-opacity="0.200000" d="M889.67,-67.39C960.3,-82.87 1140.32,-122.33 1217.2,-139.18"/>
<polygon fill="#000000" fill-opacity="0.200000" stroke="#000000" stroke-width="2" stroke-opacity="0.200000" points="1216.35,-141.14 1222.66,-140.38 1217.25,-137.04 1216.35,-141.14"/>
</g>
<!-- src/features/toggle&#45;favorite/ui/ToggleFavoriteButton.vue&#45;&gt;src/features/toggle&#45;favorite/model/favorites.ts -->
<g id="edge13" class="edge">
<title>src/features/toggle&#45;favorite/ui/ToggleFavoriteButton.vue&#45;&gt;src/features/toggle&#45;favorite/model/favorites.ts</title>
<path fill="none" stroke="#000000" stroke-width="2" stroke-opacity="0.200000" d="M798.94,-61C806.22,-61 813.49,-61 820.34,-61"/>
<polygon fill="#000000" fill-opacity="0.200000" stroke="#000000" stroke-width="2" stroke-opacity="0.200000" points="820.33,-63.1 826.33,-61 820.33,-58.9 820.33,-63.1"/>
</g>
<!-- src/features/view&#45;recipe/index.ts -->
<g id="node17" class="node">
<title>src/features/view&#45;recipe/index.ts</title>
<g id="a_node17"><a xlink:href="src/features/view-recipe/index.ts" xlink:title="index.ts">
<path fill="#ddfeff" stroke="black" d="M656.33,-159.88C656.33,-159.88 614.17,-159.88 614.17,-159.88 611.21,-159.88 608.25,-156.92 608.25,-153.96 608.25,-153.96 608.25,-148.04 608.25,-148.04 608.25,-145.08 611.21,-142.12 614.17,-142.12 614.17,-142.12 656.33,-142.12 656.33,-142.12 659.29,-142.12 662.25,-145.08 662.25,-148.04 662.25,-148.04 662.25,-153.96 662.25,-153.96 662.25,-156.92 659.29,-159.88 656.33,-159.88"/>
<text xml:space="preserve" text-anchor="start" x="619.5" y="-147.32" font-family="Helvetica,sans-Serif" font-size="9.00">index.ts</text>
</a>
</g>
</g>
<!-- src/features/view&#45;recipe/ui/ViewRecipeModal.vue -->
<g id="node18" class="node">
<title>src/features/view&#45;recipe/ui/ViewRecipeModal.vue</title>
<g id="a_node18"><a xlink:href="src/features/view-recipe/ui/ViewRecipeModal.vue" xlink:title="ViewRecipeModal.vue">
<path fill="#41f083" stroke="black" d="M786.58,-163.88C786.58,-163.88 690.17,-163.88 690.17,-163.88 687.21,-163.88 684.25,-160.92 684.25,-157.96 684.25,-157.96 684.25,-152.04 684.25,-152.04 684.25,-149.08 687.21,-146.12 690.17,-146.12 690.17,-146.12 786.58,-146.12 786.58,-146.12 789.54,-146.12 792.5,-149.08 792.5,-152.04 792.5,-152.04 792.5,-157.96 792.5,-157.96 792.5,-160.92 789.54,-163.88 786.58,-163.88"/>
<text xml:space="preserve" text-anchor="start" x="692.25" y="-151.32" font-family="Helvetica,sans-Serif" font-size="9.00">ViewRecipeModal.vue</text>
</a>
</g>
</g>
<!-- src/features/view&#45;recipe/index.ts&#45;&gt;src/features/view&#45;recipe/ui/ViewRecipeModal.vue -->
<g id="edge14" class="edge">
<title>src/features/view&#45;recipe/index.ts&#45;&gt;src/features/view&#45;recipe/ui/ViewRecipeModal.vue</title>
<path fill="none" stroke="#000000" stroke-width="2" stroke-opacity="0.200000" d="M662.56,-152.04C667.14,-152.22 672.08,-152.42 677.15,-152.62"/>
<polygon fill="#000000" fill-opacity="0.200000" stroke="#000000" stroke-width="2" stroke-opacity="0.200000" points="683.04,-154.95 677.13,-152.62 683.21,-150.76 683.04,-154.95"/>
</g>
<!-- src/features/view&#45;recipe/ui/ViewRecipeModal.vue&#45;&gt;src/entities/recipe/index.ts -->
<g id="edge15" class="edge">
<title>src/features/view&#45;recipe/ui/ViewRecipeModal.vue&#45;&gt;src/entities/recipe/index.ts</title>
<path fill="none" stroke="#000000" stroke-width="2" stroke-opacity="0.200000" d="M747.94,-164.06C768.02,-185.3 818.32,-238.5 843.56,-265.2"/>
<polygon fill="#000000" fill-opacity="0.200000" stroke="#000000" stroke-width="2" stroke-opacity="0.200000" points="841.96,-266.56 847.61,-269.48 845.01,-263.68 841.96,-266.56"/>
</g>
<!-- src/shared/ui/index.ts -->
<g id="node19" class="node">
<title>src/shared/ui/index.ts</title>
<g id="a_node19"><a xlink:href="src/shared/ui/index.ts" xlink:title="index.ts">
<path fill="#ddfeff" stroke="black" d="M1274.96,-95.88C1274.96,-95.88 1232.79,-95.88 1232.79,-95.88 1229.83,-95.88 1226.88,-92.92 1226.88,-89.96 1226.88,-89.96 1226.88,-84.04 1226.88,-84.04 1226.88,-81.08 1229.83,-78.12 1232.79,-78.12 1232.79,-78.12 1274.96,-78.12 1274.96,-78.12 1277.92,-78.12 1280.88,-81.08 1280.88,-84.04 1280.88,-84.04 1280.88,-89.96 1280.88,-89.96 1280.88,-92.92 1277.92,-95.88 1274.96,-95.88"/>
<text xml:space="preserve" text-anchor="start" x="1238.12" y="-83.33" font-family="Helvetica,sans-Serif" font-size="9.00">index.ts</text>
</a>
</g>
</g>
<!-- src/features/view&#45;recipe/ui/ViewRecipeModal.vue&#45;&gt;src/shared/ui/index.ts -->
<g id="edge16" class="edge">
<title>src/features/view&#45;recipe/ui/ViewRecipeModal.vue&#45;&gt;src/shared/ui/index.ts</title>
<path fill="none" stroke="#000000" stroke-width="2" stroke-opacity="0.200000" d="M757.36,-145.65C773.58,-136.19 796.66,-119.99 808.5,-99 821.28,-76.33 798.27,-59.57 816.5,-41 864.76,8.16 900.74,-17 969.62,-17 969.62,-17 969.62,-17 1064,-17 1128.1,-17 1197.24,-52.89 1231.34,-73.27"/>
<polygon fill="#000000" fill-opacity="0.200000" stroke="#000000" stroke-width="2" stroke-opacity="0.200000" points="1230.05,-74.94 1236.26,-76.27 1232.23,-71.36 1230.05,-74.94"/>
</g>
<!-- src/shared/ui/Modal.vue -->
<g id="node25" class="node">
<title>src/shared/ui/Modal.vue</title>
<g id="a_node25"><a xlink:href="src/shared/ui/Modal.vue" xlink:title="Modal.vue">
<path fill="#41f083" stroke="black" d="M1350.58,-95.88C1350.58,-95.88 1303.67,-95.88 1303.67,-95.88 1300.71,-95.88 1297.75,-92.92 1297.75,-89.96 1297.75,-89.96 1297.75,-84.04 1297.75,-84.04 1297.75,-81.08 1300.71,-78.12 1303.67,-78.12 1303.67,-78.12 1350.58,-78.12 1350.58,-78.12 1353.54,-78.12 1356.5,-81.08 1356.5,-84.04 1356.5,-84.04 1356.5,-89.96 1356.5,-89.96 1356.5,-92.92 1353.54,-95.88 1350.58,-95.88"/>
<text xml:space="preserve" text-anchor="start" x="1305.75" y="-83.33" font-family="Helvetica,sans-Serif" font-size="9.00">Modal.vue</text>
</a>
</g>
</g>
<!-- src/shared/ui/index.ts&#45;&gt;src/shared/ui/Modal.vue -->
<g id="edge27" class="edge">
<title>src/shared/ui/index.ts&#45;&gt;src/shared/ui/Modal.vue</title>
<path fill="none" stroke="#000000" stroke-width="2" stroke-opacity="0.200000" d="M1281,-87C1284.12,-87 1287.35,-87 1290.58,-87"/>
<polygon fill="#000000" fill-opacity="0.200000" stroke="#000000" stroke-width="2" stroke-opacity="0.200000" points="1296.6,-89.1 1290.6,-87 1296.6,-84.9 1296.6,-89.1"/>
</g>
<!-- src/main.ts -->
<g id="node20" class="node">
<title>src/main.ts</title>
<g id="a_node20"><a xlink:href="src/main.ts" xlink:title="main.ts">
<path fill="#ddfeff" stroke="black" d="M64.08,-250.88C64.08,-250.88 21.92,-250.88 21.92,-250.88 18.96,-250.88 16,-247.92 16,-244.96 16,-244.96 16,-239.04 16,-239.04 16,-236.08 18.96,-233.12 21.92,-233.12 21.92,-233.12 64.08,-233.12 64.08,-233.12 67.04,-233.12 70,-236.08 70,-239.04 70,-239.04 70,-244.96 70,-244.96 70,-247.92 67.04,-250.88 64.08,-250.88"/>
<text xml:space="preserve" text-anchor="start" x="28.38" y="-238.32" font-family="Helvetica,sans-Serif" font-size="9.00">main.ts</text>
</a>
</g>
</g>
<!-- src/main.ts&#45;&gt;src/App.vue -->
<g id="edge17" class="edge">
<title>src/main.ts&#45;&gt;src/App.vue</title>
<path fill="none" stroke="#000000" stroke-width="2" stroke-opacity="0.200000" d="M70.2,-242C74.98,-242 80.05,-242 85.04,-242"/>
<polygon fill="#000000" fill-opacity="0.200000" stroke="#000000" stroke-width="2" stroke-opacity="0.200000" points="84.85,-244.1 90.85,-242 84.85,-239.9 84.85,-244.1"/>
</g>
<!-- src/main.ts&#45;&gt;src/app.vue -->
<g id="edge18" class="edge">
<title>src/main.ts&#45;&gt;src/app.vue</title>
<path fill="none" stroke="#000000" stroke-width="2" stroke-opacity="0.200000" d="M64.39,-232.71C68.85,-230.76 73.56,-228.77 78,-227 80.37,-226.06 82.82,-225.11 85.3,-224.18"/>
<polygon fill="#000000" fill-opacity="0.200000" stroke="#000000" stroke-width="2" stroke-opacity="0.200000" points="85.98,-226.16 90.88,-222.11 84.53,-222.22 85.98,-226.16"/>
</g>
<!-- src/main.ts&#45;&gt;src/app/styles/index.css -->
<g id="edge19" class="edge">
<title>src/main.ts&#45;&gt;src/app/styles/index.css</title>
<path fill="none" stroke="#000000" stroke-width="2" stroke-opacity="0.200000" d="M46.46,-251.29C50.61,-265.22 60.35,-291.41 78,-306 80.24,-307.85 82.75,-309.44 85.39,-310.81"/>
<polygon fill="#000000" fill-opacity="0.200000" stroke="#000000" stroke-width="2" stroke-opacity="0.200000" points="84.45,-312.69 90.79,-313.08 86.08,-308.82 84.45,-312.69"/>
</g>
<!-- src/pages/recipes/ui/RecipesPage.vue&#45;&gt;src/entities/recipe/index.ts -->
<g id="edge21" class="edge">
<title>src/pages/recipes/ui/RecipesPage.vue&#45;&gt;src/entities/recipe/index.ts</title>
<path fill="none" stroke="#000000" stroke-width="2" stroke-opacity="0.200000" d="M313.58,-208.22C319.59,-234.11 340.23,-308.02 387,-345 433.21,-381.54 456.72,-377 515.62,-377 515.62,-377 515.62,-377 636.25,-377 717.48,-377 802.72,-322.29 839.63,-295.47"/>
<polygon fill="#000000" fill-opacity="0.200000" stroke="#000000" stroke-width="2" stroke-opacity="0.200000" points="840.74,-297.26 844.32,-292.01 838.25,-293.89 840.74,-297.26"/>
</g>
<!-- src/pages/recipes/ui/RecipesPage.vue&#45;&gt;src/features/toggle&#45;favorite/index.ts -->
<g id="edge22" class="edge">
<title>src/pages/recipes/ui/RecipesPage.vue&#45;&gt;src/features/toggle&#45;favorite/index.ts</title>
<path fill="none" stroke="#000000" stroke-width="2" stroke-opacity="0.200000" d="M321.6,-189.9C335.35,-177.8 361.37,-156.48 387,-144 458.37,-109.25 549.97,-88.99 599.2,-79.86"/>
<polygon fill="#000000" fill-opacity="0.200000" stroke="#000000" stroke-width="2" stroke-opacity="0.200000" points="599.38,-81.97 604.91,-78.83 598.63,-77.83 599.38,-81.97"/>
</g>
<!-- src/pages/recipes/ui/RecipesPage.vue&#45;&gt;src/features/view&#45;recipe/index.ts -->
<g id="edge23" class="edge">
<title>src/pages/recipes/ui/RecipesPage.vue&#45;&gt;src/features/view&#45;recipe/index.ts</title>
<path fill="none" stroke="#000000" stroke-width="2" stroke-opacity="0.200000" d="M324.74,-189.64C339.19,-179.91 363.52,-165.25 387,-159 460.5,-139.44 550.62,-143.11 599.2,-147.24"/>
<polygon fill="#000000" fill-opacity="0.200000" stroke="#000000" stroke-width="2" stroke-opacity="0.200000" points="598.88,-149.32 605.05,-147.76 599.26,-145.13 598.88,-149.32"/>
</g>
<!-- src/shared/lib/sort.ts -->
<g id="node22" class="node">
<title>src/shared/lib/sort.ts</title>
<g id="a_node22"><a xlink:href="src/shared/lib/sort.ts" xlink:title="sort.ts">
<path fill="#ddfeff" stroke="black" d="M1274.96,-185.88C1274.96,-185.88 1232.79,-185.88 1232.79,-185.88 1229.83,-185.88 1226.88,-182.92 1226.88,-179.96 1226.88,-179.96 1226.88,-174.04 1226.88,-174.04 1226.88,-171.08 1229.83,-168.12 1232.79,-168.12 1232.79,-168.12 1274.96,-168.12 1274.96,-168.12 1277.92,-168.12 1280.88,-171.08 1280.88,-174.04 1280.88,-174.04 1280.88,-179.96 1280.88,-179.96 1280.88,-182.92 1277.92,-185.88 1274.96,-185.88"/>
<text xml:space="preserve" text-anchor="start" x="1241.88" y="-173.32" font-family="Helvetica,sans-Serif" font-size="9.00">sort.ts</text>
</a>
</g>
</g>
<!-- src/pages/recipes/ui/RecipesPage.vue&#45;&gt;src/shared/lib/sort.ts -->
<g id="edge24" class="edge">
<title>src/pages/recipes/ui/RecipesPage.vue&#45;&gt;src/shared/lib/sort.ts</title>
<path fill="none" stroke="#000000" stroke-width="2" stroke-opacity="0.200000" d="M313.14,-208.03C318.23,-235.66 337.32,-319.9 387,-365 431.74,-405.61 455.21,-409 515.62,-409 515.62,-409 515.62,-409 1064,-409 1136.74,-409 1164.6,-383.39 1202,-321 1213.92,-301.12 1199.95,-237.89 1210,-217 1214.83,-206.97 1223.36,-198.2 1231.54,-191.46"/>
<polygon fill="#000000" fill-opacity="0.200000" stroke="#000000" stroke-width="2" stroke-opacity="0.200000" points="1232.39,-193.46 1235.85,-188.13 1229.82,-190.14 1232.39,-193.46"/>
</g>
<!-- src/widgets/recipe&#45;filters/index.ts -->
<g id="node23" class="node">
<title>src/widgets/recipe&#45;filters/index.ts</title>
<g id="a_node23"><a xlink:href="src/widgets/recipe-filters/index.ts" xlink:title="index.ts">
<path fill="#ddfeff" stroke="black" d="M451.08,-285.88C451.08,-285.88 408.92,-285.88 408.92,-285.88 405.96,-285.88 403,-282.92 403,-279.96 403,-279.96 403,-274.04 403,-274.04 403,-271.08 405.96,-268.12 408.92,-268.12 408.92,-268.12 451.08,-268.12 451.08,-268.12 454.04,-268.12 457,-271.08 457,-274.04 457,-274.04 457,-279.96 457,-279.96 457,-282.92 454.04,-285.88 451.08,-285.88"/>
<text xml:space="preserve" text-anchor="start" x="414.25" y="-273.32" font-family="Helvetica,sans-Serif" font-size="9.00">index.ts</text>
</a>
</g>
</g>
<!-- src/pages/recipes/ui/RecipesPage.vue&#45;&gt;src/widgets/recipe&#45;filters/index.ts -->
<g id="edge25" class="edge">
<title>src/pages/recipes/ui/RecipesPage.vue&#45;&gt;src/widgets/recipe&#45;filters/index.ts</title>
<path fill="none" stroke="#000000" stroke-width="2" stroke-opacity="0.200000" d="M324.56,-208.22C339.47,-218.77 364.78,-236.47 387,-251 393.16,-255.03 399.9,-259.27 406.15,-263.14"/>
<polygon fill="#000000" fill-opacity="0.200000" stroke="#000000" stroke-width="2" stroke-opacity="0.200000" points="404.93,-264.86 411.14,-266.21 407.13,-261.28 404.93,-264.86"/>
</g>
<!-- src/widgets/recipe&#45;grid/index.ts -->
<g id="node24" class="node">
<title>src/widgets/recipe&#45;grid/index.ts</title>
<g id="a_node24"><a xlink:href="src/widgets/recipe-grid/index.ts" xlink:title="index.ts">
<path fill="#ddfeff" stroke="black" d="M451.08,-203.88C451.08,-203.88 408.92,-203.88 408.92,-203.88 405.96,-203.88 403,-200.92 403,-197.96 403,-197.96 403,-192.04 403,-192.04 403,-189.08 405.96,-186.12 408.92,-186.12 408.92,-186.12 451.08,-186.12 451.08,-186.12 454.04,-186.12 457,-189.08 457,-192.04 457,-192.04 457,-197.96 457,-197.96 457,-200.92 454.04,-203.88 451.08,-203.88"/>
<text xml:space="preserve" text-anchor="start" x="414.25" y="-191.32" font-family="Helvetica,sans-Serif" font-size="9.00">index.ts</text>
</a>
</g>
</g>
<!-- src/pages/recipes/ui/RecipesPage.vue&#45;&gt;src/widgets/recipe&#45;grid/index.ts -->
<g id="edge26" class="edge">
<title>src/pages/recipes/ui/RecipesPage.vue&#45;&gt;src/widgets/recipe&#45;grid/index.ts</title>
<path fill="none" stroke="#000000" stroke-width="2" stroke-opacity="0.200000" d="M355.33,-197.51C368,-197.08 381.68,-196.61 393.76,-196.2"/>
<polygon fill="#000000" fill-opacity="0.200000" stroke="#000000" stroke-width="2" stroke-opacity="0.200000" points="393.7,-198.3 399.62,-196 393.56,-194.11 393.7,-198.3"/>
</g>
<!-- src/widgets/recipe&#45;filters/ui/RecipeFilters.vue -->
<g id="node26" class="node">
<title>src/widgets/recipe&#45;filters/ui/RecipeFilters.vue</title>
<g id="a_node26"><a xlink:href="src/widgets/recipe-filters/ui/RecipeFilters.vue" xlink:title="RecipeFilters.vue">
<path fill="#41f083" stroke="black" d="M554.33,-289.88C554.33,-289.88 478.92,-289.88 478.92,-289.88 475.96,-289.88 473,-286.92 473,-283.96 473,-283.96 473,-278.04 473,-278.04 473,-275.08 475.96,-272.12 478.92,-272.12 478.92,-272.12 554.33,-272.12 554.33,-272.12 557.29,-272.12 560.25,-275.08 560.25,-278.04 560.25,-278.04 560.25,-283.96 560.25,-283.96 560.25,-286.92 557.29,-289.88 554.33,-289.88"/>
<text xml:space="preserve" text-anchor="start" x="481" y="-277.32" font-family="Helvetica,sans-Serif" font-size="9.00">RecipeFilters.vue</text>
</a>
</g>
</g>
<!-- src/widgets/recipe&#45;filters/index.ts&#45;&gt;src/widgets/recipe&#45;filters/ui/RecipeFilters.vue -->
<g id="edge28" class="edge">
<title>src/widgets/recipe&#45;filters/index.ts&#45;&gt;src/widgets/recipe&#45;filters/ui/RecipeFilters.vue</title>
<path fill="none" stroke="#000000" stroke-width="2" stroke-opacity="0.200000" d="M457.31,-278.24C460.04,-278.37 462.87,-278.51 465.76,-278.64"/>
<polygon fill="#000000" fill-opacity="0.200000" stroke="#000000" stroke-width="2" stroke-opacity="0.200000" points="471.44,-281.01 465.55,-278.63 471.64,-276.82 471.44,-281.01"/>
</g>
<!-- src/widgets/recipe&#45;grid/ui/RecipeGrid.vue -->
<g id="node27" class="node">
<title>src/widgets/recipe&#45;grid/ui/RecipeGrid.vue</title>
<g id="a_node27"><a xlink:href="src/widgets/recipe-grid/ui/RecipeGrid.vue" xlink:title="RecipeGrid.vue">
<path fill="#41f083" stroke="black" d="M550.58,-195.88C550.58,-195.88 482.67,-195.88 482.67,-195.88 479.71,-195.88 476.75,-192.92 476.75,-189.96 476.75,-189.96 476.75,-184.04 476.75,-184.04 476.75,-181.08 479.71,-178.12 482.67,-178.12 482.67,-178.12 550.58,-178.12 550.58,-178.12 553.54,-178.12 556.5,-181.08 556.5,-184.04 556.5,-184.04 556.5,-189.96 556.5,-189.96 556.5,-192.92 553.54,-195.88 550.58,-195.88"/>
<text xml:space="preserve" text-anchor="start" x="484.75" y="-183.32" font-family="Helvetica,sans-Serif" font-size="9.00">RecipeGrid.vue</text>
</a>
</g>
</g>
<!-- src/widgets/recipe&#45;grid/index.ts&#45;&gt;src/widgets/recipe&#45;grid/ui/RecipeGrid.vue -->
<g id="edge30" class="edge">
<title>src/widgets/recipe&#45;grid/index.ts&#45;&gt;src/widgets/recipe&#45;grid/ui/RecipeGrid.vue</title>
<path fill="none" stroke="#000000" stroke-width="2" stroke-opacity="0.200000" d="M457.31,-192.51C461.17,-192.15 465.23,-191.76 469.34,-191.38"/>
<polygon fill="#000000" fill-opacity="0.200000" stroke="#000000" stroke-width="2" stroke-opacity="0.200000" points="475.48,-192.9 469.31,-191.38 475.09,-188.72 475.48,-192.9"/>
</g>
<!-- src/widgets/recipe&#45;filters/ui/RecipeFilters.vue&#45;&gt;src/entities/recipe/index.ts -->
<g id="edge29" class="edge">
<title>src/widgets/recipe&#45;filters/ui/RecipeFilters.vue&#45;&gt;src/entities/recipe/index.ts</title>
<path fill="none" stroke="#000000" stroke-width="2" stroke-opacity="0.200000" d="M560.45,-281C628.62,-281 760.53,-281 823.45,-281"/>
<polygon fill="#000000" fill-opacity="0.200000" stroke="#000000" stroke-width="2" stroke-opacity="0.200000" points="823.19,-283.1 829.19,-281 823.19,-278.9 823.19,-283.1"/>
</g>
<!-- src/widgets/recipe&#45;grid/ui/RecipeGrid.vue&#45;&gt;src/entities/recipe/index.ts -->
<g id="edge31" class="edge">
<title>src/widgets/recipe&#45;grid/ui/RecipeGrid.vue&#45;&gt;src/entities/recipe/index.ts</title>
<path fill="none" stroke="#000000" stroke-width="2" stroke-opacity="0.200000" d="M536.59,-196.24C551.47,-203.21 572.83,-212.63 592.25,-219 673.29,-245.58 771.76,-265.4 823.25,-274.85"/>
<polygon fill="#000000" fill-opacity="0.200000" stroke="#000000" stroke-width="2" stroke-opacity="0.200000" points="822.74,-276.89 829.02,-275.89 823.49,-272.76 822.74,-276.89"/>
</g>
<!-- src/widgets/recipe&#45;grid/ui/RecipeGrid.vue&#45;&gt;src/features/toggle&#45;favorite/index.ts -->
<g id="edge32" class="edge">
<title>src/widgets/recipe&#45;grid/ui/RecipeGrid.vue&#45;&gt;src/features/toggle&#45;favorite/index.ts</title>
<path fill="none" stroke="#000000" stroke-width="2" stroke-opacity="0.200000" d="M527.17,-177.75C547.26,-158.29 594.07,-112.93 618.61,-89.15"/>
<polygon fill="#000000" fill-opacity="0.200000" stroke="#000000" stroke-width="2" stroke-opacity="0.200000" points="619.88,-90.85 622.73,-85.17 616.96,-87.83 619.88,-90.85"/>
</g>
</g>
</svg>
